<?xml version="1.0" encoding="utf-8"?>
<!-- Generator: Adobe Illustrator 16.0.0, SVG Export Plug-In . SVG Version: 6.00 Build 0)  -->
<!DOCTYPE svg PUBLIC "-//W3C//DTD SVG 1.1//EN" "http://www.w3.org/Graphics/SVG/1.1/DTD/svg11.dtd">
<svg version="1.1" id="Layer_1" xmlns="http://www.w3.org/2000/svg" xmlns:xlink="http://www.w3.org/1999/xlink" x="0px" y="0px"
	 width="3669.744px" height="731.854px" viewBox="0 0 3669.744 731.854" enable-background="new 0 0 3669.744 731.854"
	 xml:space="preserve">
<path fill="#22D322" d="M1007.365,216.114c-69.857,0-125.355,7.494-166.52,22.449v106.666
	c34.918-16.846,79.051-25.275,132.391-25.275h13.537c64.859,0,97.291,23.104,97.291,69.229c0,1.588-0.777,2.365-2.318,2.365h-116.5
	c-42.717,0-80.424,4.814-113.191,14.504c-57.986,20.885-86.984,61.574-86.984,122.061v13.568c0,15.293,2.631,31.508,7.943,48.646
	c29.617,73.299,102.75,109.93,219.385,109.93c33.355,0,66.889-5.627,100.557-16.836c77.656-33.365,116.477-83.113,116.477-149.211
	V390.138c0-24.934-4.828-51.313-14.492-79.061C1166.561,247.78,1104.039,216.114,1007.365,216.114z M1084.064,522.507
	c0,6.863-0.777,13.268-2.318,19.174c-14.346,29.629-44.145,44.449-89.348,44.449h-23.855c-52.088-6.246-78.119-24.328-78.119-54.271
	c0-9.654,2.029-18.084,6.066-25.254c10.299-17.146,36.203-25.711,77.656-25.711h109.918V522.507z"/>
<path fill="#22D322" d="M1902.453,272.893c-44.232-28.691-99.068-43.033-164.504-43.033c-40.881,0-77.277,6.146-109.75,17.713
	c-32.789-11.354-69.287-17.713-110.482-17.713c-96.393,0-169.391,32.209-219.051,96.613
	c-28.762,40.104-43.143,87.254-43.143,141.402v211.682c85.639-0.605,130.574-0.877,134.652-0.877h9.502l-0.945-218.27
	c0-23.424,8.361-48.748,25.135-75.969c22.838-26.41,51.369-39.926,85.111-41.523c2.166-0.102,4.15-0.637,6.395-0.637h9.447
	c11.4,0,22.027,1.408,31.998,4.092c-0.299,4.91-0.693,9.727-0.693,14.852v318.873c85.664-0.889,130.545-1.326,134.652-1.326h9.504
	l-0.969-328.793c0-0.607,0.074-1.225,0.123-1.84c11.373-3.482,23.238-5.857,36.123-5.857h9.445c1.283,0,2.453,0.197,3.67,0.227
	c45.234,1.191,79.018,23.979,101.141,68.73c6.313,18.434,9.496,35.85,9.496,52.242V678.68h141.764V461.291
	C2001.074,382.242,1968.193,319.439,1902.453,272.893z"/>
<path fill="#22D322" d="M3082.064,360.187c-43.006-93.254-118.965-139.863-227.779-139.863h-5.627
	c-49.871,0-94.637,10.916-134.225,32.758C2640.211,299.532,2603.1,368.612,2603.1,460.29c0,34.006,6.391,68.137,19.174,102.436
	c43.053,91.672,118.807,137.514,227.33,137.514c58.627,0,108.68-13.074,150.158-39.295
	c66.729-46.457,100.082-113.332,100.082-200.654C3099.844,426.296,3093.928,392.931,3082.064,360.187z M2851.471,586.554
	c-73.594,0-133.252-59.656-133.252-133.25c0-73.59,59.658-133.25,133.252-133.25c73.592,0,133.25,59.66,133.25,133.25
	C2984.721,526.897,2925.063,586.554,2851.471,586.554z"/>
<path fill="#22D322" d="M3624.924,360.187c-43.031-93.254-118.988-139.863-227.826-139.863h-5.604
	c-49.873,0-94.637,10.916-134.246,32.758c-74.201,46.451-111.311,115.531-111.311,207.209c0,34.006,6.389,68.137,19.152,102.436
	c43.053,91.672,118.828,137.514,227.35,137.514c58.627,0,108.656-13.074,150.156-39.295
	c66.732-46.457,100.086-113.332,100.086-200.654C3642.682,426.296,3636.762,392.931,3624.924,360.187z M3394.311,588.653
	c-73.594,0-133.252-59.656-133.252-133.25c0-73.59,59.658-133.25,133.252-133.25c73.59,0,133.25,59.66,133.25,133.25
	C3527.561,528.997,3467.9,588.653,3394.311,588.653z"/>
<path fill="none" d="M481.57,321.728c-60.142,0-110.97,39.85-127.543,94.578c-3.707,12.24-5.708,25.223-5.708,38.672
	c0,1.635,0.04,3.26,0.099,4.879c2.568,71.334,61.194,128.373,133.152,128.373c73.592,0,133.25-59.656,133.25-133.252
	C614.82,381.388,555.162,321.728,481.57,321.728z"/>
<path fill="none" d="M481.57,321.728c-60.142,0-110.97,39.85-127.543,94.578c-3.707,12.24-5.708,25.223-5.708,38.672
	c0,1.635,0.04,3.26,0.099,4.879c2.568,71.334,61.194,128.373,133.152,128.373c73.592,0,133.25-59.656,133.25-133.252
	C614.82,381.388,555.162,321.728,481.57,321.728z"/>
<path fill="none" d="M481.57,321.728c-60.142,0-110.97,39.85-127.543,94.578c-3.707,12.24-5.708,25.223-5.708,38.672
	c0,1.635,0.04,3.26,0.099,4.879c2.568,71.334,61.194,128.373,133.152,128.373c73.592,0,133.25-59.656,133.25-133.252
	C614.82,381.388,555.162,321.728,481.57,321.728z"/>
<path fill="#22D322" d="M357.645,29.384h-3.682H235.491h-5.909c-19.766,0-35.779,16.016-35.779,35.777
	c0,2.082,0.189,4.117,0.531,6.1c21.888,2.271,41.746,8.48,57.871,17.928c5.953,3.488,11.392,7.42,16.24,11.754h2.242h84.021h2.938
	c19.765,0,35.779-16.021,35.779-35.781C393.424,45.399,377.41,29.384,357.645,29.384z"/>
<path fill="#22D322" d="M712.164,359.761c-43.006-93.252-118.965-139.861-227.779-139.861h-5.627
	c-45.927,0-87.521,9.264-124.731,27.787V112.054h-80.979c5.644,35.303-4.035,78.773-29.454,118.338
	c-3.3,5.137-6.778,10.045-10.395,14.742v214.723c0,0.004,0,0.006,0,0.01c0,34.006,6.391,68.137,19.174,102.436
	c43.052,91.672,118.807,137.514,227.33,137.514c58.626,0,108.679-13.074,150.158-39.295
	c66.729-46.457,100.082-113.332,100.082-200.654C729.943,425.872,724.027,392.507,712.164,359.761z M481.57,588.229
	c-71.958,0-130.584-57.039-133.152-128.373c-0.059-1.619-0.099-3.244-0.099-4.879c0-13.449,2.001-26.432,5.708-38.672
	c16.573-54.729,67.401-94.578,127.543-94.578c73.592,0,133.25,59.66,133.25,133.25C614.82,528.573,555.162,588.229,481.57,588.229z"
	/>
<path fill="#22D322" d="M261.792,119.526c-7.201,11.109-16.887,21.549-28.592,30.828c-20.239,16.045-46.511,28.617-76.44,35.139
	c-4.549,0.99-9.076,1.803-13.576,2.473c-19.374,38.191-22.644,78.463-10.279,107.32c34.198-0.828,73.015-24.203,100.296-63.389
	c1.305-1.873,2.593-3.771,3.843-5.717C260.068,190.343,268.185,150.798,261.792,119.526z"/>
<path fill="#22D322" d="M254.374,103.901c-0.39-0.344-0.782-0.686-1.182-1.023c-0.771-0.652-1.548-1.303-2.349-1.936
	c-3.883-3.068-8.129-5.869-12.687-8.395c-11.992-6.645-26.15-11.35-41.66-13.756c-19.28-2.992-40.632-2.449-62.463,2.305
	c-49.5,10.77-87.8,40.195-101.115,73.475c22.733,21.68,61.692,32.672,104.309,27.803c3.214-0.367,6.449-0.832,9.699-1.381
	c2.823-0.479,5.656-1.018,8.499-1.637c31.756-6.918,58.876-21.5,77.774-39.85c8.729-8.477,15.715-17.75,20.572-27.453
	c1.022-2.041,1.952-4.102,2.784-6.178C255.849,105.204,255.113,104.552,254.374,103.901z"/>
<path fill="#22D322" d="M2528.271,359.761c-43.004-93.252-118.963-139.861-227.777-139.861h-5.627
	c-45.928,0-87.521,9.264-124.732,27.787V112.054h-19.426h-61.553h-39.848v133.08v2.105v212.617c0,0.004,0,0.006,0,0.01
	c0,34.006,6.391,68.137,19.174,102.436c43.051,91.672,118.807,137.514,227.33,137.514c58.625,0,108.68-13.074,150.158-39.295
	c66.727-46.457,100.08-113.332,100.08-200.654C2546.051,425.872,2540.135,392.507,2528.271,359.761z M2297.678,588.229
	c-71.959,0-130.584-57.039-133.152-128.373c-0.059-1.619-0.098-3.244-0.098-4.879c0-13.449,2-26.432,5.707-38.672
	c16.574-54.729,67.4-94.578,127.543-94.578c73.592,0,133.25,59.66,133.25,133.25C2430.928,528.573,2371.27,588.229,2297.678,588.229
	z"/>
</svg>
