<?xml version="1.0" encoding="utf-8"?>
<!-- Generator: Adobe Illustrator 16.0.0, SVG Export Plug-In . SVG Version: 6.00 Build 0)  -->
<!DOCTYPE svg PUBLIC "-//W3C//DTD SVG 1.1//EN" "http://www.w3.org/Graphics/SVG/1.1/DTD/svg11.dtd">
<svg version="1.1" id="Layer_1" xmlns="http://www.w3.org/2000/svg" xmlns:xlink="http://www.w3.org/1999/xlink" x="0px" y="0px"
	 width="1144px" height="1161.555px" viewBox="0 0 1144 1161.555" enable-background="new 0 0 1144 1161.555" xml:space="preserve">
<g>
	<path fill="none" d="M721.334,516.844c-89.687,0-165.484,59.426-190.2,141.041c-5.528,18.254-8.512,37.615-8.512,57.67
		c0,2.438,0.06,4.861,0.147,7.275c3.83,106.379,91.257,191.439,198.565,191.439c109.745,0,198.712-88.963,198.712-198.715
		C920.046,605.813,831.079,516.844,721.334,516.844z"/>
	<path fill="none" d="M721.334,516.844c-89.687,0-165.484,59.426-190.2,141.041c-5.528,18.254-8.512,37.615-8.512,57.67
		c0,2.438,0.06,4.861,0.147,7.275c3.83,106.379,91.257,191.439,198.565,191.439c109.745,0,198.712-88.963,198.712-198.715
		C920.046,605.813,831.079,516.844,721.334,516.844z"/>
	<path fill="none" d="M721.334,516.844c-89.687,0-165.484,59.426-190.2,141.041c-5.528,18.254-8.512,37.615-8.512,57.67
		c0,2.438,0.06,4.861,0.147,7.275c3.83,106.379,91.257,191.439,198.565,191.439c109.745,0,198.712-88.963,198.712-198.715
		C920.046,605.813,831.079,516.844,721.334,516.844z"/>
	<path fill="#22D322" d="M536.529,80.881h-5.49H354.365h-8.813c-29.476,0-53.356,23.884-53.356,53.353
		c0,3.105,0.283,6.141,0.792,9.097c32.641,3.387,62.255,12.646,86.301,26.735c8.878,5.201,16.987,11.064,24.218,17.528h3.344
		h125.296h4.38c29.475,0,53.356-23.892,53.356-53.36C589.886,104.765,566.004,80.881,536.529,80.881z"/>
	<path fill="#22D322" d="M1065.211,573.561c-64.131-139.063-177.407-208.57-339.678-208.57h-8.391
		c-68.489,0-130.519,13.815-186.009,41.438V204.165H410.373c8.417,52.646-6.018,117.472-43.924,176.473
		c-4.921,7.66-10.108,14.98-15.5,21.984V722.83c0,0.006,0,0.01,0,0.016c0,50.713,9.53,101.609,28.593,152.758
		c64.201,136.707,177.172,205.07,339.01,205.07c87.427,0,162.071-19.498,223.926-58.6c99.51-69.279,149.247-169.008,149.247-299.229
		C1091.725,672.15,1082.902,622.395,1065.211,573.561z M721.334,914.27c-107.308,0-194.735-85.061-198.565-191.439
		c-0.087-2.414-0.147-4.838-0.147-7.275c0-20.055,2.984-39.416,8.512-57.67c24.716-81.615,100.514-141.041,190.2-141.041
		c109.745,0,198.712,88.969,198.712,198.711C920.046,825.307,831.079,914.27,721.334,914.27z"/>
	<path fill="#22D322" d="M393.587,215.308c-10.739,16.567-25.183,32.135-42.638,45.973c-30.183,23.927-69.36,42.675-113.993,52.4
		c-6.784,1.478-13.535,2.689-20.246,3.688c-28.892,56.954-33.768,117.009-15.329,160.042
		c50.999-1.234,108.884-36.092,149.568-94.529c1.945-2.793,3.867-5.624,5.731-8.524
		C391.017,320.914,403.122,261.942,393.587,215.308z"/>
	<path fill="#22D322" d="M382.524,192.007c-0.581-0.512-1.166-1.022-1.762-1.526c-1.151-0.973-2.308-1.943-3.502-2.887
		c-5.791-4.576-12.122-8.752-18.918-12.519c-17.884-9.908-38.998-16.925-62.127-20.513c-28.751-4.463-60.593-3.653-93.148,3.437
		c-73.817,16.061-130.933,59.941-150.79,109.57c33.902,32.33,92,48.722,155.552,41.461c4.792-0.547,9.618-1.241,14.464-2.059
		c4.21-0.713,8.436-1.518,12.674-2.44c47.357-10.316,87.8-32.062,115.983-59.427c13.016-12.641,23.435-26.47,30.679-40.939
		c1.525-3.044,2.911-6.117,4.152-9.213C384.725,193.95,383.627,192.977,382.524,192.007z"/>
</g>
</svg>
